<?xml version="1.0" standalone="no"?><!DOCTYPE svg PUBLIC "-//W3C//DTD SVG 1.1//EN" "http://www.w3.org/Graphics/SVG/1.1/DTD/svg11.dtd"><svg t="1502270764892" class="icon" style="" viewBox="0 0 1055 1024" version="1.1" xmlns="http://www.w3.org/2000/svg" p-id="4596" xmlns:xlink="http://www.w3.org/1999/xlink" width="206.0546875" height="200"><defs><style type="text/css"></style></defs><path d="M971.053176 457.758118 582.927059 457.758118 582.927059 69.632c0-30.750118-24.816941-55.446588-55.446588-55.446588-30.840471 0-55.446588 24.816941-55.446588 55.446588l0 388.126118L83.937882 457.758118c-30.750118 0-55.446588 24.816941-55.446588 55.446588 0 30.840471 24.816941 55.446588 55.446588 55.446588l388.096 0 0 388.126118c0 30.750118 24.816941 55.446588 55.446588 55.446588 30.840471 0 55.446588-24.816941 55.446588-55.446588L582.927059 568.621176l388.126118 0c30.750118 0 55.446588-24.816941 55.446588-55.446588C1026.469647 482.364235 1001.652706 457.758118 971.053176 457.758118z" p-id="4597" fill="#ffffff"></path></svg>