<?xml version="1.0" standalone="no"?><!DOCTYPE svg PUBLIC "-//W3C//DTD SVG 1.1//EN" "http://www.w3.org/Graphics/SVG/1.1/DTD/svg11.dtd"><svg t="1502271072018" class="icon" style="" viewBox="0 0 1024 1024" version="1.1" xmlns="http://www.w3.org/2000/svg" p-id="1221" xmlns:xlink="http://www.w3.org/1999/xlink" width="200" height="200"><defs><style type="text/css"></style></defs><path d="M889.123127 41.198308 141.232628 41.198308c-74.479295 0-134.855384 65.067948-134.855384 145.33404l0 646.102231c0 80.265068 60.376089 145.33404 134.855384 145.33404l747.890498 0c74.479295 0 134.855384-65.068971 134.855384-145.33404L1023.978511 186.532347C1023.978511 106.266255 963.602422 41.198308 889.123127 41.198308zM937.670819 421.227624c-208.905914 10.82044-226.616274 195.523115-350.554004 201.166649-127.748523 5.817496-166.991292-138.420583-253.095345-140.243091-85.661985-5.083785-156.63441 81.129762-241.335511 113.224738L92.685959 186.532347c0-28.849048 21.778003-52.320623 48.547693-52.320623L889.12415 134.211724c26.76969 0 48.547693 23.471574 48.547693 52.320623l0 234.695277L937.670819 421.227624zM207.546963 262.161838c0-54.514591 41.005926-98.707093 91.589998-98.707093s91.589998 44.192501 91.589998 98.707093-41.005926 98.707093-91.589998 98.707093S207.546963 316.676429 207.546963 262.161838L207.546963 262.161838 207.546963 262.161838z" p-id="1222" fill="#ffffff"></path></svg>