<?xml version="1.0" standalone="no"?><!DOCTYPE svg PUBLIC "-//W3C//DTD SVG 1.1//EN" "http://www.w3.org/Graphics/SVG/1.1/DTD/svg11.dtd"><svg t="1502271152044" class="icon" style="" viewBox="0 0 1024 1024" version="1.1" xmlns="http://www.w3.org/2000/svg" p-id="3193" xmlns:xlink="http://www.w3.org/1999/xlink" width="200" height="200"><defs><style type="text/css"></style></defs><path d="M575.22057 1019.286768c-14.823427 0-31.779031-2.965148-50.144902-11.497325l-3.759942-1.735358L28.329463 521.346638l-1.012292-1.301518c-1.554881-2.060448-15.582357-20.824295-22.884743-47.57773-10.448012-38.502965-2.024584-73.752711 24.367896-102.025163l0.578453-0.614317L350.564604 49.871873l3.326103-1.699494c2.965148-1.519017 73.716847-36.804628 125.886334 4.952711l1.156905 0.903543L610.072341 187.32726 767.122233 28.758351l0.578453-0.469704c1.590745-1.410268 16.052061-13.918727 39.841504-20.137093 21.836587-5.712798 56.182791-7.266522 95.95141 17.751555L905.66164 27.31222l89.515546 89.515546c5.134346 4.122054 17.498192 15.582357 24.150398 34.707158 7.15893 20.390456 9.399855 53.687346-20.390456 96.854953l-1.012292 1.590745-1.374403 1.374403L841.453397 412.345336l122.126392 127.873897c3.688214 3.651193 15.039769 15.943312 20.824295 37.346059 5.568185 20.679682 6.941432 54.229935-18.294143 97.46927l-1.590745 2.74765L649.696347 990.291251c-1.374403 1.301518-14.100362 13.666522-35.430224 21.836587C604.071474 1016.032393 590.838791 1019.286768 575.22057 1019.286768zM548.431271 966.358351c40.816775 16.630513 67.57021-9.328127 67.787708-9.617354L926.703433 648.570354c11.641938-20.89718 15.980333-40.347072 12.581345-56.254519-2.386696-10.774259-7.519884-16.848012-8.605061-18.004917l-0.867679-0.723066-0.144613-0.289226-153.868402-161.09906L961.04848 219.936949c13.232683-19.66739 18.076645-37.238467 14.17209-50.903832-2.603037-9.110629-8.315835-14.17209-9.544469-15.148518l-1.952856-1.265654-0.940564-1.265654-86.767896-86.732032c-18.872596-11.352711-37.310195-15.075633-54.663774-11.135213C809.349275 56.234852 801.395552 61.983514 799.515581 63.429646L633.572558 230.855821l-24.657122 23.391468L449.117894 89.279537c-24.041649-18.004917-60.159074-4.772234-70.78872-0.253362L63.145371 403.090094c-14.823427 16.016197-19.088937 34.63543-13.015184 56.941721 4.049168 14.895155 11.641938 26.644685 14.027477 30.115401L548.431271 966.358351zM223.557229 209.742299l587.093565 587.057701-33.550253 33.478525L190.079861 243.219667 223.557229 209.742299zM236.898661 482.048879 270.411893 515.526247l-106.977874 106.94201L129.956651 588.989732 236.898661 482.048879zM502.335537 743.291974l33.478525 33.550253-106.977874 106.94201-33.478525-33.478525L502.335537 743.291974zM420.231127 562.380911l33.478525 33.478525L298.756072 750.811858l-33.478525-33.478525L420.231127 562.380911z" p-id="3194" fill="#ffffff"></path></svg>