<?xml version="1.0" standalone="no"?><!DOCTYPE svg PUBLIC "-//W3C//DTD SVG 1.1//EN" "http://www.w3.org/Graphics/SVG/1.1/DTD/svg11.dtd"><svg t="1502270534874" class="icon" style="" viewBox="0 0 1024 1024" version="1.1" xmlns="http://www.w3.org/2000/svg" p-id="3906" xmlns:xlink="http://www.w3.org/1999/xlink" width="200" height="200"><defs><style type="text/css"></style></defs><path d="M584.004941 508.726443 1004.163209 90.749864c19.86749-19.766183 19.967774-51.798736 0.201591-71.666226-19.819394-19.918655-51.798736-19.967774-71.666226-0.201591L512.442068 436.909791 95.835695 19.032472C76.120678-0.733711 44.036959-0.835018 24.169469 18.931165c-19.817348 19.766183-19.86749 51.846832-0.101307 71.717392l416.507112 417.772942L20.621667 926.144298c-19.86749 19.766183-19.967774 51.798736-0.199545 71.666226 9.881045 9.93221 22.905686 14.951527 35.933397 14.951527 12.924357 0 25.845645-4.913916 35.730783-14.746866l420.054915-417.824107L932.553265 1001.86691c9.881045 9.934257 22.858614 14.899338 35.883255 14.899338 12.973476 0 25.89988-4.965082 35.780925-14.799054 19.819394-19.766183 19.86749-51.798736 0.101307-71.666226L584.004941 508.726443 584.004941 508.726443z" p-id="3907" fill="#ffffff"></path></svg>