<?xml version="1.0" standalone="no"?><!DOCTYPE svg PUBLIC "-//W3C//DTD SVG 1.1//EN" "http://www.w3.org/Graphics/SVG/1.1/DTD/svg11.dtd"><svg t="1502271107016" class="icon" style="" viewBox="0 0 1024 1024" version="1.1" xmlns="http://www.w3.org/2000/svg" p-id="2484" xmlns:xlink="http://www.w3.org/1999/xlink" width="200" height="200"><defs><style type="text/css"></style></defs><path d="M409.842 333.428c0-37.343-30.162-67.626-67.45-67.626-37.226 0-67.417 30.282-67.417 67.626 0 37.387 30.191 67.645 67.417 67.645 37.288-0.001 67.45-30.258 67.45-67.645z m106.52 385.66c20.304-37.333 59.278-62.948 104.676-62.948h47.89v-48.048c0-49.003 29.331-91.03 71.315-109.714v-2.209h0.067l-60.972-184.817-212.917 275.556-57.07-96.961-226.4 229.14h333.411z m-0.366 132.845v-0.006h-331.02c-24.722 0-44.933-20.307-44.933-45.089v-631.31c0-24.806 20.21-45.107 44.934-45.107h629.356c24.723 0 44.932 20.3 44.932 45.107v320.646h0.017c0 0.239-0.017 0.477-0.017 0.721 0 24.911 20.149 45.089 44.966 45.089 24.818 0 44.966-20.179 44.966-45.089 0-0.245-0.017-0.482-0.017-0.721h0.017V130.42c0-49.607-40.485-90.187-89.933-90.187H140.043c-49.454 0-89.934 40.58-89.934 90.187v721.507c0 49.608 40.48 90.187 89.934 90.187h375.953v-0.006c24.73-0.1 44.778-20.256 44.778-45.089 0-24.847-20.049-44.986-44.778-45.086z m432.71-116.163H836.353V623.053c0-24.911-20.154-45.106-44.966-45.106-24.817 0-44.972 20.196-44.972 45.106V735.77H634.06c-24.812 0-44.961 20.2-44.961 45.107 0 24.895 20.149 45.089 44.961 45.089h112.356v112.738c0 24.896 20.155 45.092 44.972 45.092 24.813 0 44.966-20.196 44.966-45.092V825.966h112.351c24.851 0 44.966-20.19 44.966-45.09 0-24.906-20.114-45.106-44.966-45.106z" fill="#ffffff" p-id="2485"></path></svg>