<?xml version="1.0" standalone="no"?><!DOCTYPE svg PUBLIC "-//W3C//DTD SVG 1.1//EN" "http://www.w3.org/Graphics/SVG/1.1/DTD/svg11.dtd"><svg t="1502271297617" class="icon" style="" viewBox="0 0 1024 1024" version="1.1" xmlns="http://www.w3.org/2000/svg" p-id="5164" xmlns:xlink="http://www.w3.org/1999/xlink" width="200" height="200"><defs><style type="text/css"></style></defs><path d="M820.088844 62.509682 200.36233 62.509682c-76.06235 0-137.718595 61.656245-137.718595 137.719618l0 619.72549c0 76.05928 61.656245 137.714502 137.718595 137.714502l619.726513 0c76.058257 0 137.714502-61.655222 137.714502-137.714502L957.803345 200.229301C957.803345 124.165928 896.146077 62.509682 820.088844 62.509682L820.088844 62.509682zM269.219581 131.367957l482.010989 0 0 344.296487c0 38.028105-30.832216 68.856227-68.862367 68.856227L338.077855 544.520671c-38.029128 0-68.857251-30.828123-68.857251-68.856227L269.220604 131.367957 269.219581 131.367957zM888.945071 819.954791c0 38.029128-30.828123 68.857251-68.856227 68.857251L200.36233 888.812041c-38.028105 0-68.861344-30.828123-68.861344-68.857251L131.500986 200.229301c0-38.029128 30.832216-68.862367 68.861344-68.862367l0 413.152714c0 38.029128 30.828123 68.857251 68.857251 68.857251l482.010989 0c38.029128 0 68.857251-30.828123 68.857251-68.857251L820.08782 131.367957c38.028105 0 68.856227 30.832216 68.856227 68.862367L888.944048 819.954791 888.945071 819.954791zM647.942135 475.66342c19.013029 0 34.42709-15.419178 34.42709-34.431184L682.369226 234.656391c0-19.013029-15.413038-34.42709-34.42709-34.42709-19.016099 0-34.43016 15.413038-34.43016 34.42709l0 206.576869C613.511975 460.245266 628.925013 475.66342 647.942135 475.66342L647.942135 475.66342zM647.942135 475.66342" p-id="5165" fill="#ffffff"></path></svg>