<?xml version="1.0" standalone="no"?><!DOCTYPE svg PUBLIC "-//W3C//DTD SVG 1.1//EN" "http://www.w3.org/Graphics/SVG/1.1/DTD/svg11.dtd"><svg t="1502270797107" class="icon" style="" viewBox="0 0 1084 1024" version="1.1" xmlns="http://www.w3.org/2000/svg" p-id="6094" xmlns:xlink="http://www.w3.org/1999/xlink" width="211.71875" height="200"><defs><style type="text/css"></style></defs><path d="M230.580706 1024v-42.405647c27.407059-7.830588 55.055059-14.637176 83.124706-20.48 27.949176-5.903059 118.362353-10.661647 150.768941-14.637177V76.077176H167.936L69.029647 285.274353H22.407529a765.289412 765.289412 0 0 1-9.33647-66.56 2815.277176 2815.277176 0 0 1-11.14353-152.094118A1307.226353 1307.226353 0 0 1 0 0h1084.235294c0 19.516235-0.662588 41.562353-1.927529 65.837176-1.264941 24.395294-2.831059 49.513412-4.818824 75.354353-1.867294 25.840941-3.614118 51.2-5.601882 76.077177-1.807059 24.877176-4.638118 47.585882-8.432941 68.065882h-49.091765l-98.063059-209.257412H621.628235v870.4c32.346353 4.999529 122.88 9.818353 150.768941 14.757648 28.009412 4.818824 54.994824 11.625412 81.197177 20.48V1024H230.580706z" fill="#ffffff" p-id="6095"></path></svg>