<?xml version="1.0" standalone="no"?><!DOCTYPE svg PUBLIC "-//W3C//DTD SVG 1.1//EN" "http://www.w3.org/Graphics/SVG/1.1/DTD/svg11.dtd"><svg t="1502271511791" class="icon" style="" viewBox="0 0 1024 1024" version="1.1" xmlns="http://www.w3.org/2000/svg" p-id="2760" xmlns:xlink="http://www.w3.org/1999/xlink" width="200" height="200"><defs><style type="text/css"></style></defs><path d="M512.546957 500.031411c-0.095167-0.091074-0.221034-0.147356-0.361227-0.147356-0.141216 0-0.268106 0.056282-0.36225 0.147356l-7.549953 7.28287c-0.051165 0.049119-0.070608 0.12689-0.042979 0.197498s0.094144 0.113587 0.162706 0.113587l4.88424 0 0 7.402597c0 0.138146 0.052189 0.276293 0.154519 0.38067 0.103354 0.106424 0.237407 0.158612 0.372483 0.158612l4.756327 0c0.135076 0 0.270153-0.053212 0.372483-0.158612 0.103354-0.105401 0.154519-0.242524 0.154519-0.38067l0-7.402597 4.88424 0c0.068562 0 0.135076-0.042979 0.162706-0.113587s0.008186-0.149403-0.044002-0.197498L512.546957 500.031411 512.546957 500.031411 512.546957 500.031411zM526.520203 517.884011l-4.64888-3.307326-2.90619 0 4.875031 4.044106-5.358031-0.071631c-0.155543 0-0.379647 0.152473-0.449231 0.280386l-1.488911 3.690042-8.716522 0-1.488911-3.690042c-0.069585-0.127913-0.293689-0.280386-0.449231-0.280386l-5.326309 0 4.842285-3.972475-2.90619 0-4.649903 3.308349c-0.726547 0.446162-1.162476 1.473561-0.967024 2.285043l0.862647 4.846378c0.195451 0.810459 1.059122 1.473561 1.920746 1.473561l25.041326 0c0.860601 0 1.725294-0.663102 1.920746-1.473561l0.861624-4.846378C527.683702 519.358595 527.247774 518.330172 526.520203 517.884011L526.520203 517.884011 526.520203 517.884011zM526.520203 517.884011" p-id="2761" fill="#ffffff"></path><path d="M522.729877 130.026402c-2.764973-2.648316-6.432503-4.278443-10.507308-4.278443-4.104481 0-7.800663 1.630127-10.535961 4.278443L281.802666 342.139358c-1.484817 1.426489-2.067079 3.696182-1.251503 5.762237 0.814552 2.067079 2.735297 3.318582 4.744048 3.318582l142.262074 0 0 215.606523c0 4.016477 1.51347 8.032954 4.511757 11.088546 2.998287 3.086291 6.92676 4.627391 10.856255 4.627391l138.53724 0c3.929496 0 7.858992-1.542122 10.856255-4.627391 2.998287-3.055592 4.510734-7.072069 4.510734-11.088546L596.829526 351.220177l142.262074 0c2.00875 0 3.929496-1.251503 4.745071-3.318582 0.814552-2.066055 0.233314-4.336772-1.281179-5.762237L522.729877 130.026402 522.729877 130.026402 522.729877 130.026402zM929.697729 649.949862 794.304086 553.61377l-84.635609 0L851.639932 671.400407l-156.058288-2.095731c-4.541433 0-11.060917 4.453429-13.097296 8.178263l-43.36567 107.481943L385.269156 784.964882 341.903485 677.482939c-2.037403-3.725858-8.556886-8.178263-13.097296-8.178263L173.67911 669.304675l141.04127-115.690906L230.083747 553.61377l-135.423319 96.364745c-21.158902 12.980639-33.848922 42.928718-28.173666 66.561975l25.117051 141.156904c5.704932 23.603581 30.850635 42.928718 55.939033 42.928718l729.302141 0c25.058722 0 50.234101-19.325138 55.93801-42.928718l25.089421-141.156904C963.576327 692.907233 950.886307 662.959154 929.697729 649.949862L929.697729 649.949862 929.697729 649.949862zM929.697729 649.949862" p-id="2762" fill="#ffffff"></path></svg>