<?xml version="1.0" standalone="no"?><!DOCTYPE svg PUBLIC "-//W3C//DTD SVG 1.1//EN" "http://www.w3.org/Graphics/SVG/1.1/DTD/svg11.dtd"><svg t="1502271365138" class="icon" style="" viewBox="0 0 1024 1024" version="1.1" xmlns="http://www.w3.org/2000/svg" p-id="5976" xmlns:xlink="http://www.w3.org/1999/xlink" width="200" height="200"><defs><style type="text/css"></style></defs><path d="M411.183 65.523H123.135c-31.801 0-57.612 25.811-57.612 57.612v288.048c0 31.801 25.811 57.608 57.612 57.608h288.048c31.801 0 57.608-25.811 57.608-57.608V123.135c0.003-31.801-25.807-57.612-57.608-57.612z m0 316.857c0 15.899-12.904 28.806-28.806 28.806h-230.44c-15.899 0-28.806-12.904-28.806-28.806V151.94c0-15.899 12.904-28.806 28.806-28.806h230.44c15.899 0 28.806 12.904 28.806 28.806v230.44zM900.869 65.523H612.82c-31.829 0-57.612 25.811-57.612 57.612v288.048c0 31.801 25.811 57.608 57.612 57.608h288.048c31.829 0 57.608-25.811 57.608-57.608V123.135c0.004-31.801-25.778-57.612-57.607-57.612z m0 316.857c0 15.899-12.904 28.806-28.806 28.806h-230.44c-15.899 0-28.806-12.904-28.806-28.806V151.94c0-15.899 12.904-28.806 28.806-28.806h230.44c15.899 0 28.806 12.904 28.806 28.806v230.44zM411.183 555.209H123.135c-31.801 0-57.612 25.779-57.612 57.612v288.048c0 31.801 25.811 57.608 57.612 57.608h288.048c31.801 0 57.608-25.779 57.608-57.608V612.82c0.003-31.829-25.807-57.611-57.608-57.611z m0 316.854c0 15.899-12.904 28.806-28.806 28.806h-230.44c-15.899 0-28.806-12.904-28.806-28.806v-230.44c0-15.899 12.904-28.806 28.806-28.806h230.44c15.899 0 28.806 12.875 28.806 28.806v230.44z m489.686-316.854H612.82c-31.829 0-57.612 25.779-57.612 57.612v288.048c0 31.801 25.811 57.608 57.612 57.608h288.048c31.829 0 57.608-25.779 57.608-57.608V612.82c0.004-31.829-25.778-57.611-57.607-57.611z m0 316.854c0 15.899-12.904 28.806-28.806 28.806h-230.44c-15.899 0-28.806-12.904-28.806-28.806v-230.44c0-15.899 12.904-28.806 28.806-28.806h230.44c15.899 0 28.806 12.875 28.806 28.806v230.44z" p-id="5977" fill="#ffffff"></path></svg>