<?xml version="1.0" standalone="no"?>
<!DOCTYPE svg PUBLIC "-//W3C//DTD SVG 1.1//EN" "http://www.w3.org/Graphics/SVG/1.1/DTD/svg11.dtd" >
<svg xmlns="http://www.w3.org/2000/svg">
<metadata>Generated by IcoMoon</metadata>
<defs>
<font id="icomoon" horiz-adv-x="1024">
<font-face units-per-em="1024" ascent="960" descent="-64" />
<missing-glyph horiz-adv-x="1024" />
<glyph unicode="&#x20;" horiz-adv-x="512" d="" />
<glyph unicode="&#xe900;" glyph-name="add" d="M512-58.361c-279.66 0-506.36 226.7-506.36 506.361s226.7 506.36 506.36 506.36 506.361-226.7 506.361-506.36-226.7-506.361-506.361-506.361zM765.18 498.636h-202.544v202.544h-101.272v-202.544h-202.544v-101.272h202.544v-202.544h101.272v202.544h202.544v101.272z" />
<glyph unicode="&#xe901;" glyph-name="addto" d="M512-64c-282.752 0-512 229.248-512 512s229.248 512 512 512 512-229.248 512-512-229.248-512-512-512zM512 832c-212.032 0-384-171.968-384-384s171.968-384 384-384 384 171.968 384 384-171.968 384-384 384zM704 384h-128v-128c0-35.392-28.608-64-64-64-35.328 0-64 28.608-64 64v128h-128c-35.328 0-64 28.608-64 64 0 35.328 28.672 64 64 64h128v128c0 35.328 28.672 64 64 64 35.392 0 64-28.672 64-64v-128h128c35.392 0 64-28.672 64-64 0-35.392-28.608-64-64-64z" />
<glyph unicode="&#xe902;" glyph-name="arrow" d="M324.613 811.591c0 0 413.412-317.444 413.412-317.444 28.734-22.060 28.734-69.89 0-91.951 0 0-413.412-317.444-413.412-317.444-26.633-20.453-59.941 5.128-59.942 46.038 0 0 0 634.826 0 634.826 0 40.847 33.308 66.43 59.941 45.976 0 0 0 0 0 0z" />
<glyph unicode="&#xe903;" glyph-name="convert" d="M659.548 125.015l2.714-136.422s-0.312-8.576 16.604-12.001c14.172-2.877 27.54 6.902 27.54 6.902 5.893 4.342 281.4 181.699 281.4 181.699s26.404 14.065 25.943 40.95c-0.44 26.26-19.502 36.639-19.502 36.639l-289.736 166.733s-18.268 6.333-33.669 2.801c-16.65-3.809-16.271-16.036-16.271-16.036l2.54-126.070-278.687-4.68s-220.216 25.836-221.588 107.29c0 0 7.992-256.118 231.112-252.375zM363.612 771.323l-2.714 136.566s-3.123 9.784-21.084 11.848c-11.996 1.362-19.354-4.833-21.939-6.717l-281.656-181.888s-26.429-14.070-25.974-40.975c0.44-26.291 19.523-36.695 19.523-36.695l290.007-166.907s12.052-7.020 28.191-2.519c19.948 5.555 20.628 15.749 20.628 15.749l-2.545 126.208 280.095 4.695s220.431-25.836 221.783-107.377c0 0-7.992 256.353-231.316 252.595z" />
<glyph unicode="&#xe904;" glyph-name="course" d="M827.575 706.834v-574.385h-555.846c-63.468 0-114.878 13.742-114.878 77.182 0 63.497 51.408 96.928 114.878 96.928h496.502v573.207h-534.813c-84.223 0-153.16-68.937-153.16-153.187v-555.202c0-84.251 68.937-153.187 153.16-153.187h708.418v688.646h-114.26zM310.012 247.943h458.219v-55.027h-458.219v55.027z" />
<glyph unicode="&#xe905;" glyph-name="effects" d="M900.778 800.366c8.203-53.67-7.936-62.122-48.426-25.338-49.089-24.121-62.262-11.518-39.52 37.768-38.543 38.784-30.54 55.005 24.009 48.692 25.265 48.069 43.385 45.518 54.354-7.683 54.159-9.060 57.353-26.883 9.583-53.439zM586.696 337.784c-79.409-259.419-169.017-263.042-268.832-10.915-269.108-3.979-300.229 80.865-93.364 254.548-86.908 256.947-16.529 313.024 211.132 168.225 215.397 162.782 290.012 112.583 223.847-150.584 220.035-156.338 195.774-243.437-72.783-261.274zM796.401 663.667c17.448 24.185 27.064 21.78 28.854-7.22 28.642-7.936 28.985-17.633 1.020-29.050 0.252-29.1-9.156-32.681-28.227-10.733-28.484-10.039-34.64-2.559-18.462 22.411-17.859 22.888-12.256 31.079 16.815 24.592zM692.022 269.529l202.098-202.562c15.22-15.255 15.22-39.989 0-55.244s-39.897-15.256-55.117 0l-202.099 202.562c-15.22 15.255-15.22 39.989 0 55.244s39.897 15.255 55.118 0z" />
<glyph unicode="&#xe906;" glyph-name="hook" d="M1005.25 781.25c-25 25-65.5 25-90.5 0l-530.75-530.75-274.75 274.75c-25 25-65.5 25-90.5 0s-25-65.5 0-90.5l320-320c12.5-12.5 28.875-18.75 45.25-18.75s32.75 6.25 45.25 18.75l576 576c25 25 25 65.5 0 90.5z" />
<glyph unicode="&#xe907;" glyph-name="hotline" d="M509.929 885.465c-241.605 0-437.465-195.859-437.465-437.465s195.859-437.465 437.465-437.465 437.465 195.859 437.465 437.465-195.86 437.465-437.465 437.465zM695.841 285.499c-6.049-6.162-14.911-15.138-18.347-18.66l-3.039-3.095-5.085-5.169c-24.681-25.078-109.942-62.795-262.43 85.289-147.29 143.058-106.477 229.853-86.454 254.931 12.212 12.639 27.293 27.834 33.627 34.196h0.029c15.195 15.45 39.933 15.365 55.242-0.17l49.219-49.987c15.28-15.507 15.365-40.642 0.142-56.094-7.156-7.271-24.481-24.85-24.481-24.85l-9.174-9.315c-14.74-15.28-11.332-23.261 5.283-43.653 0.454-1.022 73.901-73.787 74.413-73.986 35.643-28.941 39.792-32.689 53.877-18.092l30.503 30.987c15.223 15.423 42.034 19.284 57.314 3.749l49.219-50.015c15.279-15.506 15.337-40.642 0.141-56.064zM512.112 579.967c1.392 5.113 6.645 8.265 11.758 7.072 21.585-5.084 48.85-6.731 82.109-40.586 29.935-30.418 34.394-61.291 38.825-83.075 1.052-5.113-2.329-10.225-7.555-11.418-3.38-0.796-6.703 0.285-8.89 2.528-1.194 1.221-2.045 2.784-2.443 4.573-3.719 18.291-8.605 48.169-33.939 73.93-33.457 34.053-54.957 31.242-73.104 35.531-5.085 1.193-8.151 6.334-6.759 11.446zM712.314 447.133c-3.38-0.738-6.675 0.311-8.861 2.556-1.194 1.221-2.075 2.812-2.443 4.629-5.793 29.254-15.138 76.94-61.631 124.257-45.527 46.322-92.448 56.774-120.508 63.677-5.084 1.279-8.094 6.418-6.645 11.502 1.392 5.113 6.731 8.237 11.873 6.987 31.412-7.753 74.924-13.377 129.283-68.703 59.474-60.524 60.069-100.74 66.574-133.516 0.994-5.113-2.386-10.225-7.641-11.389z" />
<glyph unicode="&#xe908;" glyph-name="i" horiz-adv-x="1025" d="M982.943 646.635c-53.592 126.689-145.619 218.716-272.308 272.308-127.009 53.72-270.325 53.72-397.27 0-126.689-53.592-219.419-145.299-273.139-272.308-53.592-126.689-53.592-270.645 0-397.334 53.72-127.009 146.194-219.419 273.139-273.139 126.689-53.592 270.645-53.592 397.27 0 127.009 53.72 218.716 146.514 272.308 273.139 53.72 127.009 53.72 270.389 0 397.334zM423.362 780.551c0 11.511 10.616 22.191 22.191 22.191h133.020c11.511 0 22.191-10.616 22.191-22.191v-133.020c0-11.511-10.616-22.191-22.191-22.191h-133.020c-11.511 0-22.191 10.616-22.191 22.191v133.020zM689.403 204.087c0-11.511-10.616-22.191-22.191-22.191h-310.359c-11.511 0-22.191 10.616-22.191 22.191v44.319c0 11.511 10.616 22.127 22.191 22.127h66.51v177.467h-66.51c-11.511 0-22.191 10.616-22.191 22.191v44.319c0 11.511 10.616 22.191 22.191 22.191h221.722c11.511 0 22.191-10.616 22.191-22.191v-243.913h66.51c11.511 0 22.191-10.616 22.191-22.127v-44.383z" />
<glyph unicode="&#xe909;" glyph-name="invitation" d="M483.362 163.957h-184.171c-13.238 0-23.077 7.517-25.308 19.267-0.309 1.922-0.309 3.913-0.309 5.835v245.337c0 9.565 4.062 13.489 13.81 13.489 63.808 0 127.537 0 191.368 0.080 3.833 0 4.702-0.95 4.702-4.634-0.092-103.498-0.092-171.471-0.092-274.981v-4.393zM548.132 163.957v4.714c0 103.35 0 171.311-0.080 274.649 0 3.581 0.801 4.714 4.714 4.714 61.566-0.16 123.166-0.080 184.64-0.080 9.428 0 13.432-3.833 13.432-13.1 0-93.762 0.080-151.998 0-245.749 0-15.56-9.897-25.148-25.491-25.148h-177.215zM482.973 485.722h-242.625c-10.297 0-14.393 4.062-14.393 14.222v53.511c0 9.027 4.073 13.1 13.112 13.1h240.394c2.712 0 4.004-0.4 4.004-3.512-0.092-24.679-0.092-49.358-0.092-74.128-0.080-0.789-0.24-1.751-0.4-3.192zM548.132 485.962v3.913c0 24.198 0.092 48.397-0.080 72.595 0 3.432 1.041 4.233 4.393 4.233 76.989-0.080 154.081-0.080 231.046-0.080 10.377 0 14.542-4.233 14.542-14.531v-53.191c0-8.375-4.634-13.18-13.043-13.18h-233.678c-0.789 0-1.579 0.080-3.181 0.24zM512.675 604.884h-170.831c-0.308-0.008-0.672-0.012-1.036-0.012-3.279 0-6.477 0.35-9.558 1.015l0.297-0.054c-7.883 2.071-11.899 8.787-10.057 16.613 0.561 2.483 1.43 4.954 2.551 7.185 8.066 16.373 16.224 32.665 24.381 48.957 7.403 14.691 22.128 18.535 35.994 9.428 33.866-22.128 67.641-44.324 101.427-66.451 16.853-11.018 34.564-11.178 51.337-0.16 33.695 22.128 67.424 44.164 101.119 66.28 14.771 9.668 29.461 5.927 37.528-9.588 8.375-16.052 16.865-32.104 25.148-48.157 1.041-2.082 2.002-4.233 2.632-6.464 2.792-9.668-2.632-17.494-12.78-18.443-2.471-0.16-4.966-0.16-7.425-0.16l-170.728 0.011z" />
<glyph unicode="&#xe90a;" glyph-name="lock" d="M611.84 620.544c0 53.76-45.056 98.816-99.84 98.816s-99.84-43.52-99.84-98.816v-61.44h199.68v61.44zM512 956.416c-280.576 0-507.904-227.84-508.416-508.416 0-280.576 227.328-508.416 508.416-508.416s508.416 227.328 508.416 508.416c0 280.576-227.84 507.904-508.416 508.416zM770.56 280.064c0-43.52-35.84-79.36-79.36-79.36h-359.424c-43.52 0-79.36 35.84-79.36 79.36v199.68c0 43.52 35.84 79.36 79.36 79.36h39.936v61.44c0 75.776 62.976 138.24 140.8 138.24s140.8-61.44 140.8-138.24v-61.44h39.936c45.056 0 79.36-35.84 78.336-79.36v-199.68zM692.736 519.68h-359.936c-22.016 0-39.936-17.92-39.936-39.936v-199.68c0-22.016 17.92-39.936 39.936-39.936h359.936c22.016 0 39.936 17.92 39.936 39.936v199.68c-0.512 22.016-18.432 39.936-39.936 39.936zM532.48 363.52v-64c0-11.776-9.216-20.48-20.48-20.48s-20.48 9.216-20.48 20.48v64c-23.040 9.216-39.936 30.72-39.936 56.32 0 33.28 27.136 60.416 60.416 60.416s60.416-27.136 60.416-60.416c0-25.6-16.896-48.64-39.936-56.32z" />
<glyph unicode="&#xe90b;" glyph-name="loginout" d="M402.286 137.143q0-2.286 0.571-11.429t2.857-15.143-1.714-13.429-5.714-11.143-11.714-3.714h-182.857q-68 0-116.286 48.286t-48.286 116.286v402.286q0 68 48.286 116.286t116.286 48.286h182.857q7.429 0 12.857-5.429t5.429-12.857q0-2.286 0.571-11.429t2.857-15.143-1.714-13.429-5.714-11.143-11.714-3.714h-182.857q-37.714 0-64.571-26.857t-26.857-64.571v-402.286q0-37.714 26.857-64.571t64.571-26.857h178.286l6.571-0.571 6.571-1.714 4.571-3.143 4-5.143 1.143-7.714zM932.571 448q0-14.857-10.857-25.714l-310.857-310.857q-10.857-10.857-25.714-10.857t-25.714 10.857-10.857 25.714v164.571h-256q-14.857 0-25.714 10.857t-10.857 25.714v219.429q0 14.857 10.857 25.714t25.714 10.857h256v164.571q0 14.857 10.857 25.714t25.714 10.857 25.714-10.857l310.857-310.857q10.857-10.857 10.857-25.714z" />
<glyph unicode="&#xe90c;" glyph-name="music" d="M687.072 928.992c-265.632 96.672-559.36-40.256-656.064-305.92-96.672-265.664 40.288-559.424 305.92-656.064 265.664-96.672 559.36 40.32 656.064 305.92 96.704 265.664-40.288 559.36-305.92 656.064zM776.864 423.36c-4.559-7.933-10.377-14.608-17.258-19.983l-0.15-0.113c-6.272-4.576-10.784-6.080-13.504-4.608-2.752 1.408-4.544 4.448-5.408 8.992-0.896 4.512-0.128 11.936 2.208 22.368 3.872 16.896 2.976 30.784-2.592 41.472s-16.576 20.928-32.928 30.624c-16.698 10.154-30.317 23.795-40.153 39.988l-0.295 0.524c-7.878 12.491-15.766 27.18-22.662 42.414l-0.954 2.354c-5.824 12-11.616 17.6-17.44 16.928-5.792-0.704-10.336-7.872-12.768-14.464l-24.672-72.416-62.528-171.584-33.6-92.48c-3.232-10.048-10.368-16.192-18.272-27.136-8.501-11.372-19.254-20.58-31.648-27.083l-0.512-0.245c-13.536-7.328-29.632-11.872-48.384-13.792-18.72-1.888-40.192 0.928-64.384 8.288-24.544 7.52-44.672 19.776-60.544 36.8-15.776 17.024-26.24 35.040-31.36 53.984-2.092 7.178-3.295 15.424-3.295 23.952 0 11.3 2.113 22.106 5.965 32.046l-0.206-0.605c6.784 18.016 20.608 32.096 41.44 42.336 20.864 10.24 41.184 15.264 61.024 15.072 19.5-0.002 38.29-3.033 55.929-8.647l-1.305 0.359c16.608-5.28 30.816-11.744 42.624-19.392 11.808-7.52 23.712-12.768 28.96-17.472l62.432 171.584c17.856 48.928 39.776 110.464 62.496 171.648 4.384 12.032 7.552 17.76 16.48 23.168s18.688 6.912 29.376 4.448c9.024-1.856 15.456-6.208 19.2-12.992 3.808-6.784 7.008-15.456 9.664-26.016 2.592-10.592 6.176-22.752 10.624-36.576 4.448-13.792 11.936-28.512 22.464-44.096 8.8-14.016 17.056-24.672 24.704-32.192 7.616-7.488 14.912-14.496 21.568-20.896 6.688-6.432 12.96-13.504 18.944-21.344 5.984-7.808 11.616-19.008 16.928-33.632 5.504-14.144 7.168-27.424 4.992-39.84-1.917-11.913-5.84-22.597-11.437-32.183l0.237 0.439z" />
<glyph unicode="&#xe90d;" glyph-name="notice" d="M577.242 808.037c-9.643 13.088-23.49 20.863-40.112 22.492l-5.296 0.291c-14.408-0.070-30.57-6.084-49.426-18.378-2.284-1.58-8.39-5.933-18.11-13.006-9.209-6.782-20.61-15.197-34.174-25.314-14.652-10.975-31.094-23.056-45.232-33.414-17.845-13.042-35.031-25.773-51.070-37.832-36.223-26.558-77.735-57.457-126.909-94.455l-2.357-1.777h-37.938c-41.91 0-73.511-27.43-73.511-63.809v-188.251c0-17.944 7.632-33.996 22.059-46.438 13.514-11.68 30.713-17.608 51.132-17.608h13.748c6.736 0 12.228 0.31 13.971 0.6l0.64 0.118h1.083c2.456 0 4.976 0.004 7.418 0.080l3.038 0.088 2.456-1.798c27.768-20.322 55.58-40.922 82.655-61.233 27.644-21.067 56.493-43.313 85.743-66.129 33.167-25.893 61.618-48.364 86.982-68.69 19.605-16.288 37.439-24.886 54.516-26.285 2.629-0.198 4.787-0.296 6.762-0.296 15.055 0 28.251 4.27 39.213 12.694 11.419 8.719 19.911 20.549 25.254 35.175 4.73 12.861 7.13 25.415 7.13 37.324v583.425c0 10.581-1.245 22.284-3.698 34.78-2.774 14.404-8.149 27.072-15.966 37.647zM918.994 517.387c-6.24 22.188-14.963 43.255-25.943 62.605-10.921 19.395-24.244 37.671-39.611 54.308-15.335 16.596-32.104 31.386-49.836 43.925l-0.305 0.208-0.334 0.28c-4.796 4.083-10.193 6.072-16.511 6.072-7.548 0-13.88-2.69-19.342-8.219-5.526-5.527-8.214-11.909-8.214-19.492 0-9.565 3.77-16.736 11.873-22.572 29.053-20.505 53.628-47.005 73.012-78.747 19.558-32.162 29.478-68.109 29.478-106.847 0-19.206-2.619-37.988-7.781-55.827-5.084-17.734-12.366-34.738-21.625-50.54-9.211-15.646-20.084-30.326-32.311-43.629-12.089-13.168-25.329-24.735-39.485-34.48l-0.378-0.376c-0.699-0.648-1.588-1.408-3.117-2.354-6.508-5.763-9.665-12.637-9.665-20.99 0-7.563 2.7-13.938 8.256-19.492 5.447-5.503 11.753-8.185 19.301-8.185 6.027 0 11.086 1.605 15.456 4.889l0.312 0.228c18.252 12.578 35.232 27.337 50.468 43.863 15.302 16.576 28.774 34.998 40.036 54.759 11.215 19.598 20.039 40.746 26.231 62.862 6.217 22.087 9.371 45.395 9.371 69.27-0.009 23.306-3.148 46.343-9.336 68.478zM755.433 498.826c-5.828 13.868-13.845 27.96-23.83 41.886-3.732 5.112-7.627 9.601-11.575 13.339-2.805 2.661-6.301 3.897-11.007 3.897-6.539 0-11.695-2.203-16.238-6.941-4.593-4.83-6.818-10.405-6.818-17.035 0-3.246 0.511-6.117 1.52-8.506l0.159-0.418c1.697-4.622 4.065-9.186 7.055-13.584 3.562-5.005 7.067-10.476 10.417-16.259 3.604-6.076 6.542-12.616 8.971-20 2.512-7.552 3.785-16.402 3.785-26.297 0-10.35-1.274-19.442-3.777-27.029-2.489-7.503-5.441-13.961-9.035-19.754-3.431-5.625-6.877-10.883-10.26-15.644-1.979-2.894-3.674-5.646-5.252-8.541l-1.902-5.18c-1.135-3.090-1.68-6.019-1.68-8.953 0-6.609 2.222-12.157 6.803-16.968 4.576-4.784 9.738-7.016 16.254-7.016 4.607 0 8.21 1.294 11.007 3.94 4.032 3.823 7.971 8.367 11.677 13.483 9.436 12.4 17.281 26.291 23.32 41.285 5.96 14.698 8.983 31.644 8.983 50.376-0.001 19.568-2.888 36.36-8.577 49.919z" />
<glyph unicode="&#xe90e;" glyph-name="password" d="M513.378 661.516c-60.465 0-109.423-48.237-109.423-107.797 0-12.655 2.605-24.626 6.688-35.859h205.489c4.065 11.233 6.707 23.203 6.707 35.859-0.001 59.562-49.012 107.797-109.461 107.797zM513.378 445.994c-40.292 0-72.955-32.127-72.955-71.828 0-26.492 14.743-49.438 36.487-61.87v-45.835c0-19.86 16.313-35.915 36.468-35.915 20.139 0 36.505 16.054 36.505 35.915v45.835c21.689 12.432 36.506 35.378 36.506 61.87-0.001 39.701-32.681 71.828-73.012 71.828zM827.644 881.101h-628.495c-66.748 0-120.859-54.11-120.859-120.859v-628.495c0-66.748 54.111-120.859 120.859-120.859h628.495c66.748 0 120.859 54.111 120.859 120.859v628.495c0 66.748-54.111 120.859-120.859 120.859zM768.785 302.339c0-79.328-65.325-143.656-145.947-143.656h-218.883c-80.621 0-145.947 64.327-145.947 143.656v143.656c0 39.701 32.681 71.866 72.955 71.866v35.859c0 99.188 81.656 179.588 182.415 179.588 100.723 0 182.434-80.4 182.434-179.588v-35.859c40.311 0 72.974-32.164 72.974-71.866v-143.656z" />
<glyph unicode="&#xe90f;" glyph-name="payment" d="M512.015 914.046c-256.99 0-466.048-209.059-466.048-466.050 0-256.959 209.059-466.019 466.048-466.019 256.961 0.001 466.019 209.060 466.019 466.019 0 256.991-209.059 466.050-466.019 466.050zM684.962 517.883c14.428 0 26.095-11.668 26.095-26.095s-11.668-26.095-26.095-26.095h-146.852v-127.085h146.852c14.428 0 26.095-11.668 26.095-26.095s-11.668-26.095-26.095-26.095h-146.852v-125.403c0-14.428-11.668-26.095-26.095-26.095s-26.095 11.668-26.095 26.095v125.406h-146.881c-14.428 0-26.095 11.668-26.095 26.095s11.668 26.095 26.095 26.095h146.881v127.084h-146.881c-14.428 0-26.095 11.668-26.095 26.095s11.668 26.095 26.095 26.095h124.446l-142.892 142.892c-10.198 10.168-10.198 26.725 0 36.893 10.139 10.198 26.754 10.198 36.893 0l154.513-154.513 154.487 154.512c10.198 10.198 26.725 10.168 36.922 0.030 10.198-10.198 10.198-26.725 0.030-36.922l-142.867-142.893h124.391z" />
<glyph unicode="&#xe910;" glyph-name="phone" d="M509.929 885.465c-241.605 0-437.465-195.859-437.465-437.465s195.859-437.465 437.465-437.465 437.465 195.859 437.465 437.465-195.86 437.465-437.465 437.465zM695.841 285.499c-6.049-6.162-14.911-15.138-18.347-18.66l-3.039-3.095-5.085-5.169c-24.681-25.078-109.942-62.795-262.43 85.289-147.29 143.058-106.477 229.853-86.454 254.931 12.212 12.639 27.293 27.834 33.627 34.196h0.029c15.195 15.45 39.933 15.365 55.242-0.17l49.219-49.987c15.28-15.507 15.365-40.642 0.142-56.094-7.156-7.271-24.481-24.85-24.481-24.85l-9.174-9.315c-14.74-15.28-11.332-23.261 5.283-43.653 0.454-1.022 73.901-73.787 74.413-73.986 35.643-28.941 39.792-32.689 53.877-18.092l30.503 30.987c15.223 15.423 42.034 19.284 57.314 3.749l49.219-50.015c15.279-15.506 15.337-40.642 0.141-56.064zM512.112 579.967c1.392 5.113 6.645 8.265 11.758 7.072 21.585-5.084 48.85-6.731 82.109-40.586 29.935-30.418 34.394-61.291 38.825-83.075 1.052-5.113-2.329-10.225-7.555-11.418-3.38-0.796-6.703 0.285-8.89 2.528-1.194 1.221-2.045 2.784-2.443 4.573-3.719 18.291-8.605 48.169-33.939 73.93-33.457 34.053-54.957 31.242-73.104 35.531-5.085 1.193-8.151 6.334-6.759 11.446zM712.314 447.133c-3.38-0.738-6.675 0.311-8.861 2.556-1.194 1.221-2.075 2.812-2.443 4.629-5.793 29.254-15.138 76.94-61.631 124.257-45.527 46.322-92.448 56.774-120.508 63.677-5.084 1.279-8.094 6.418-6.645 11.502 1.392 5.113 6.731 8.237 11.873 6.987 31.412-7.753 74.924-13.377 129.283-68.703 59.474-60.524 60.069-100.74 66.574-133.516 0.994-5.113-2.386-10.225-7.641-11.389z" />
<glyph unicode="&#xe911;" glyph-name="problem" d="M512 883.506c-241.1 0-436.549-195.448-436.549-436.549s195.449-436.549 436.549-436.549 436.549 195.448 436.549 436.549-195.449 436.549-436.549 436.549zM549.938 247.843c-2.666-5.892-6.274-11.124-10.84-15.689s-9.797-8.174-15.689-10.842c-5.902-2.654-12.265-3.991-19.114-3.991-6.844 0-13.219 1.337-19.112 3.991-6.080 2.773-11.275 6.416-15.687 10.841l-0.001 0.001c-4.426 4.413-8.071 9.609-10.709 15.361l-0.135 0.328c-2.665 5.902-3.994 12.265-3.994 19.116 0 6.843 1.329 13.208 3.994 19.109 2.772 6.081 6.416 11.276 10.842 15.688l0.001 0.001c4.413 4.426 9.608 8.069 15.36 10.705l0.328 0.135c5.893 2.656 12.268 3.993 19.112 3.993 6.849 0 13.213-1.337 19.114-3.993 6.079-2.775 11.274-6.417 15.688-10.839l0.001-0.001c4.424-4.414 8.067-9.609 10.705-15.361l0.135-0.328c2.658-5.903 3.993-12.266 3.993-19.109 0-6.849-1.336-13.214-3.993-19.116zM624.679 504.578c-8.757-15.785-22.25-32.619-40.51-50.493-11.036-10.648-19.78-19.679-26.239-27.095-6.474-7.421-11.323-14.076-14.55-19.972-3.235-5.902-5.33-11.694-6.277-17.401-0.954-5.704-1.427-12.179-1.427-19.398 0-24.347-10.268-36.514-30.806-36.514-7.988 0-14.266 0.57-18.827 1.709-4.567 1.143-8.086 3.141-10.554 5.995-2.481 2.85-4.093 6.648-4.851 11.41-0.766 4.751-1.143 10.556-1.143 17.401 0 38.799 19.772 77.592 59.337 116.39 9.127 8.744 16.543 16.059 22.25 21.962 5.706 5.894 10.172 11.416 13.41 16.544 3.226 5.136 5.319 10.271 6.274 15.409 0.944 5.133 1.427 11.307 1.427 18.539 0 16.734-5.133 29.757-15.403 39.081-10.269 9.313-24.534 13.978-42.79 13.978-18.259 0-32.904-5.233-43.931-15.689-11.036-10.468-16.926-23.105-17.689-37.942-1.14-22.446-12.176-33.66-33.089-33.66-22.063 0-33.091 10.839-33.091 32.519 0 31.18 12.168 58.95 36.515 83.298 23.96 23.96 54.955 35.943 92.993 35.943 37.653 0 67.41-10.555 89.291-31.665 21.867-21.11 32.804-50.875 32.804-89.285-0.001-18.262-4.379-35.286-13.123-51.067z" />
<glyph unicode="&#xe912;" glyph-name="recharge" d="M472.8 39.2c207.7 0 379.4 155 405.4 355.7l81.8 56.1-81.8 50.3c-26.1 200.6-197.7 355.5-405.4 355.5-225.7 0-408.8-183-408.8-408.8s183.1-408.8 408.8-408.8zM406.1 511.8c26.4-22.8 51.8-46 75.9-69.7l-26.5-25-19.3 20.1-27.3-0.9v-65.3c0-8.9 4.6-13.4 13.7-13.4h10c7.6 0 12.6 2.4 14.9 7.1 2.4 4.8 4.7 17.5 6.7 38.2 9.6-4.5 21.6-9.2 36-14.1-5-27.8-10.9-45.3-17.9-52.3-6.9-7.1-18.7-10.5-35.1-10.2h-29.9c-23 0-34.5 12.9-34.5 38.6v70.3l-29-1.3c-4.3-59-32-97-83-113.8-10.5 14.2-19.1 25.3-26 33.2 44.3 12.3 68.8 38.5 73.4 78.6-17.5-1.1-30.9-2.3-40.2-3.5l-13.4 30.6c19.1 11.3 39.2 29.1 60.2 53.3h-76v34h104.8l-9.3 21.3 37.6 8.2 12.1-29.6h100.9v-34h-123.2c-15.2-16.7-32.2-33.3-50.8-49.7 24.1 0.4 56.6 1.2 97.6 2.6l-27.5 27 25.1 19.7zM577 355.4h19.1v153.4h60v15.2h-66.2v28.8h66.2v19.3h34v-19.3h73.9v-28.8h-74v-15.2h62.1v-153.4h18v-28.8h-193.1v28.8zM556 575.5l34-9c-6.5-20.6-13.8-40.7-21.9-60.2v-186.1h-32.7v118.3c-4.7-8.4-9.4-16.6-14.4-24.7-2.1 13.6-4.9 29.6-8.5 48.1 16.6 33.3 31.1 71.2 43.5 113.6zM628.5 431.5v13.4h91.1v-13.4h-91.1zM628.5 393.4v13.4h91.1v-13.4h-91.1zM719.6 483v-13.4h-91.1v13.4h91.1zM628.5 355.4v13.4h91.1v-13.4h-91.1z" />
<glyph unicode="&#xe913;" glyph-name="service" d="M669.476 513.563c3.22-12.782 4.843-28.14 4.805-45.665v-0.087c0.062-19.458-1.907-41.083-5.846-64.293-0.879-5.201-1.845-10.379-2.861-15.42l-0.012-0.012c-14.219-4.471-27.744-6.601-39.498-7.431-2.303 4.595-7.023 7.642-14.491 6.552 0 0-6.205 0.112-8.831 0.26-22.368 1.276-40.068 7.147-47.734 12.608-2.713 1.932-5.92 2.96-9.252 2.96-5.152 0-10.008-2.514-12.993-6.701-2.477-3.48-3.443-7.703-2.737-11.902s3.010-7.877 6.478-10.354c16.039-11.419 44.439-18.616 74.127-18.777h1.041c5.611-0.223 9.896 2.514 12.608 6.465 10.924 0.595 23.384 2.192 36.649 5.536-3.294-13.5-7.134-26.939-11.481-40.141-15.469-47.164-35.596-85.659-55.462-106.157-1.139 1.362-2.626 3.381-4.335 6.317l-0.112 0.199c-4.756 8.001-9.599 19.173-14.726 31.001l-0.124 0.298c-3.777 8.707-7.691 17.711-11.902 26.269-6.514 13.19-12.237 22.208-18.541 29.242-12.188 13.686-24.747 16.559-33.132 16.559-4.856 0-9.76-0.941-14.578-2.786l-0.173-0.075c-30.183-11.841-45.058-42.817-55.933-65.458l-1.486-3.158c-4.546-9.574-8.843-18.616-12.807-24.4-1.808-2.65-3.097-3.988-3.815-4.633-0.037 0.012-0.384 0.173-0.384 0.173l-0.272 0.112c-1.597 0.644-8.336 6.031-18.034 21.699-9.116 14.751-18.158 34.271-25.502 55.004l-0.025 0.087c-9.166 25.317-16.324 52.193-21.266 79.874-0.917 5.116-1.759 10.305-2.502 15.445-3.060 21.019-4.62 41.368-4.62 60.491 0 16.386 1.102 31.992 3.269 46.384l0.211 1.437v0.793c0.075 0.743 0.185 1.585 0.347 2.49 0.075 0.347 0.136 0.694 0.211 1.041l0.112 0.495c1.028 4.298 2.465 8.224 4.248 11.692 2.316 4.484 5.276 8.324 8.807 11.419 6.502 5.698 15.383 9.388 26.393 10.948 2.131 0.298 4.235 0.446 6.267 0.446h0.087c15.16 0 28.264-7.605 45.108-18.343l0.767-0.483c0.359-0.235 0.706-0.458 1.078-0.694l0.199-0.148 0.657-0.422c17.377-11.072 35.336-22.529 59.401-22.653h0.075c7.518 0 15.246 1.288 22.901 3.803l0.223 0.075c16.535 5.623 32.016 13.773 45.703 20.981l0.26 0.136c19.371 10.144 37.653 19.73 52.8 19.73h0.718c9.091-0.025 16.857-2.985 25.193-9.562 3.876-3.381 7.283-8.521 10.156-15.296 1.337-3.146 2.563-6.701 3.667-10.565 0.321-1.14 0.618-2.28 0.904-3.407zM954.863 448.006c0-244.602-198.255-442.871-442.857-442.871-244.577 0-442.871 198.269-442.871 442.871 0 244.577 198.293 442.858 442.871 442.858 244.602 0 442.857-198.281 442.857-442.858zM765.6 458.497c0 28.351-15.507 52.775-37.825 63.823-7.766 48.96-33.503 93.87-72.617 126.593-39.832 33.329-90.909 51.685-143.834 51.685-53.146 0-104.398-18.504-144.317-52.093-39.064-32.884-64.652-77.893-72.244-126.927-21.526-11.382-36.352-35.348-36.352-63.080 0-37.838 27.608-68.666 62.151-70.065-0.371 2.242-0.718 4.483-1.053 6.713-3.555 23.607-5.351 46.521-5.351 68.12 0 17.401 1.139 34.098 3.369 49.715h0.037l0.421 2.948c0.533 3.679 1.177 7.32 1.932 10.936 0.148 0.558 0.297 1.127 0.458 1.684h-0.112c18.59 85.349 98.466 148.242 191.059 148.242 37.639 0 72.877-8.695 102.689-24.696 30.579-17.823 55.921-43.325 72.79-73.843 7.506-15.122 12.807-31.732 15.494-49.666l3.493-14.306c2.725-13.81 4.087-29.378 4.050-46.434 0.062-18.752-1.573-39.175-4.818-60.838-0.545-0.211-1.065-0.483-1.561-0.805-4.087-2.65-8.212-5.053-12.324-7.22 4.235 24.759 6.354 47.932 6.292 68.876 0.037 19.817-1.883 37.429-5.722 52.304-0.26 1.041-0.558 2.118-0.892 3.307-1.201 4.223-2.563 8.249-4.075 11.952-4.483 11.023-10.342 19.68-17.401 25.7l-0.347 0.272c-12.671 10.057-25.403 14.763-40.092 14.813h-0.731c-20.993 0-41.801-10.899-63.835-22.442l-0.335-0.173c-12.906-6.788-27.533-14.491-42.223-19.483-5.276-1.733-10.491-2.614-15.482-2.614-17.092 0.075-31.397 9.166-46.521 18.801l-0.161 0.124-0.136 0.087c-0.892 0.57-1.709 1.102-2.527 1.611-19.631 12.522-36.364 22.109-57.952 22.109h-0.087c-3.121 0-6.341-0.223-9.611-0.682-25.886-3.679-44.687-16.733-54.36-37.751-2.019-4.385-3.654-9.14-4.856-14.156l-0.049-0.161-0.049-0.211c-0.099-0.421-0.186-0.805-0.26-1.189-0.371-1.784-0.83-4.446-1.003-7.097-2.316-15.519-3.493-32.252-3.493-49.715 0-20.932 1.747-43.189 5.189-66.126 0.755-5.041 1.611-10.144 2.514-15.173 5.177-28.611 12.608-56.404 22.084-82.587 16.709-47.189 39.572-83.64 56.937-90.761 3.567-1.573 6.911-2.328 10.218-2.328h0.173c12.324 0 20.201 11.481 22.777 15.272 5.029 7.332 9.722 17.216 14.69 27.694l1.437 3.034c9.661 20.114 21.687 45.157 43.151 53.567 2.080 0.805 4.124 1.201 6.044 1.201 5.116 0 10.28-2.886 15.382-8.608 4.818-5.388 9.426-12.758 14.925-23.892 3.976-8.063 7.766-16.807 11.457-25.303 5.462-12.634 10.627-24.56 16.163-33.862 5.288-9.116 13.773-19.99 24.201-19.99h0.743c5.065 0.124 9.896 2.303 14.789 6.701l0.099 0.075 0.31 0.322c22.963 22.653 45.888 65.383 62.893 117.229 6.082 18.467 11.222 37.429 15.333 56.454 8.336 3.543 16.782 7.89 25.167 13.203 30.484 5.619 53.694 34.428 53.694 69.108z" />
<glyph unicode="&#xe914;" glyph-name="upload" d="M495.15 888.183c8.948 8.956 23.462 8.956 32.412 0l366.509-366.53c6.552-6.558 8.506-16.402 4.983-24.988-1.199-2.842-2.9-5.359-4.983-7.431-4.233-4.175-10.027-6.706-16.217-6.706l-188.038-0.118v-309.554c0-6.054-2.408-11.93-6.699-16.209-4.279-4.307-10.147-6.691-16.201-6.691h-311.929c-12.619 0-22.901 10.215-22.901 22.9v309.42l-187.604-0.104c-9.274 0-17.601 5.595-21.199 14.108-3.53 8.602-1.576 18.431 4.982 25.003l366.886 366.901zM869.194 327.19v-237.488h-713.218v237.488h-91.987v-253.536c0-40.384 32.738-73.116 73.112-73.116h748.132c40.371 0 73.12 32.732 73.12 73.116v253.536h-89.159z" />
<glyph unicode="&#xe915;" glyph-name="wallet" d="M829 336.604c0-25.443 20.595-46.068 46-46.068s46 20.625 46 46.068v0c0 25.443-20.595 46.068-46 46.068s-46-20.625-46-46.068v0zM861.876 797.296l-76.464 132.648c-16.576 28.742-53.272 38.588-81.968 21.996l-267.446-154.644h425.878zM846.5 236.954c-54.954 0-99.5 44.614-99.5 99.648 0 55.040 44.546 99.652 99.5 99.652h177.5v240.862c0 33.186-26.864 60.090-60 60.090h-904c-33.136 0-60-26.906-60-60.090v-681.026c0-33.188 26.864-60.090 60-60.090h904c33.136 0 60 26.902 60 60.090v240.864h-177.5z" />
</font>
</defs>
</svg>
